<svg id="Alerte" xmlns="http://www.w3.org/2000/svg" width="16" height="15" viewBox="0 0 16 15">
  <g id="Polygone_4" data-name="Polygone 4" fill="none" stroke-linejoin="round">
    <path d="M7.559.827a.5.5,0,0,1,.882,0l7.167,13.438a.5.5,0,0,1-.441.735H.833a.5.5,0,0,1-.441-.735Z" stroke="none"/>
    <path d="M 7.999998569488525 3.187490463256836 L 2.499998092651367 13.50000286102295 L 13.5 13.50000286102295 L 7.999998569488525 3.187490463256836 M 7.999999046325684 0.5624971389770508 C 8.173528671264648 0.5624971389770508 8.34705924987793 0.6507329940795898 8.441179275512695 0.8272027969360352 L 15.60783863067627 14.26470279693604 C 15.78546905517578 14.59776210784912 15.54412937164307 15.00000286102295 15.16666889190674 15.00000286102295 L 0.8333292007446289 15.00000286102295 C 0.4558687210083008 15.00000286102295 0.2145290374755859 14.59776210784912 0.3921594619750977 14.26470279693604 L 7.558818817138672 0.8272027969360352 C 7.652938842773438 0.6507329940795898 7.826469421386719 0.5624971389770508 7.999999046325684 0.5624971389770508 Z" stroke="none" fill="#e5e5eb"/>
  </g>
  <line id="Ligne_1592" data-name="Ligne 1592" y2="3.5" transform="translate(8 6.5)" fill="none" stroke="#e5e5eb" stroke-width="1.5"/>
  <line id="Ligne_1593" data-name="Ligne 1593" y2="1.5" transform="translate(8 11)" fill="none" stroke="#e5e5eb" stroke-width="1.5"/>
</svg>
