<svg id="Bouton_masquer_pistes" data-name="Bouton_masquer pistes" xmlns="http://www.w3.org/2000/svg" width="30"
     height="30" viewBox="0 0 30 30">
    <rect id="Rectangle_1699" data-name="Rectangle 1699" width="30" height="30" fill="none"/>
    <g id="Oeil_afficher_masquer" data-name="Oeil afficher/masquer" transform="translate(6 9)">
        <path id="Tracé_7" data-name="Tracé 7"
              d="M219.724,333.829a9.676,9.676,0,0,0-9,6,9.75,9.75,0,0,0,18,0A9.675,9.675,0,0,0,219.724,333.829Zm0,10a4,4,0,1,1,4.091-4A4.048,4.048,0,0,1,219.724,343.829Zm0-6.4a2.4,2.4,0,1,0,2.454,2.4A2.425,2.425,0,0,0,219.724,337.429Z"
              transform="translate(-210.724 -333.829)" fill="#3B4559"/>
    </g>
</svg>
