<svg xmlns="http://www.w3.org/2000/svg" width="20" height="20" viewBox="0 0 20 20">
  <g id="Calendar" transform="translate(280 -41)">
    <g>
      <g fill="none" stroke-miterlimit="10">
        <path d="M-266,44V42h-2v2h-4V42h-2v2h-4V59h16V44Zm2,13h-12V50h12Zm0-9h-12V46h12Z" stroke="none" />
        <path
          d="M -274 42 L -272 42 L -272 44 L -268 44 L -268 42 L -266 42 L -266 44 L -262 44 L -262 59 L -278 59 L -278 44 L -274 44 L -274 42 Z M -264 48 L -264 46 L -276 46 L -276 48 L -264 48 Z M -264 57 L -264 50 L -276 50 L -276 57 L -264 57 Z"
          stroke="none" fill="currentColor" />
      </g>
      <g transform="translate(-274 52)" fill="none" stroke="currentColor" stroke-miterlimit="10" stroke-width="2">
        <rect width="4" height="3" stroke="none" />
        <rect x="1" y="1" width="2" height="1" fill="none" />
      </g>
    </g>
    <rect width="20" height="20" transform="translate(-280 41)" fill="none" />
  </g>
</svg>