<svg xmlns="http://www.w3.org/2000/svg" width="22.999" height="17.002" viewBox="0 0 22.999 17.002"><path d="M12121.5,15765v-1h3.5v-3.5h1v4.5Zm-18.5,0v-4.5h1v3.5h3.5v1Zm2.5-8.5a9.741,9.741,0,1,1,9,6A9.681,9.681,0,0,1,12105.5,15756.5Zm5.092-.087a4,4,0,0,0,3.909,4.087,4.051,4.051,0,0,0,4.092-4,4,4,0,0,0-3.909-4h-.1A4,4,0,0,0,12110.592,15756.411Zm1.563.143a2.4,2.4,0,0,1,2.346-2.453h0a2.425,2.425,0,0,1,2.449,2.4,2.4,2.4,0,0,1-2.346,2.4h-.059A2.394,2.394,0,0,1,12112.155,15756.554Zm12.847-4.052v-3.5h-3.5v-1h4.5v4.5Zm-22,0v-4.5h4.5v1h-3.5v3.5Z" transform="translate(-12103 -15747.999)" fill="#fff"/></svg>