<svg xmlns="http://www.w3.org/2000/svg" width="20" height="20" viewBox="0 0 20 20">
  <g id="Groupe_3960" data-name="Groupe 3960" transform="translate(-150 -953)">
    <path id="Union_6" data-name="Union 6"
      d="M-4076.329,3H-4080V1h3.67a3,3,0,0,1,2.83-2,3,3,0,0,1,2.83,2H-4060V3h-10.67a3,3,0,0,1-2.829,2A3,3,0,0,1-4076.329,3ZM-4075,2a1.5,1.5,0,0,0,1.5,1.5A1.5,1.5,0,0,0-4072,2a1.5,1.5,0,0,0-1.5-1.5A1.5,1.5,0,0,0-4075,2Z"
      transform="translate(4230 954)" fill="currentColor" />
    <path id="Union_7" data-name="Union 7"
      d="M-4069.329,3H-4080V1h10.67a3,3,0,0,1,2.83-2,3,3,0,0,1,2.83,2h3.67V3h-3.671a3,3,0,0,1-2.829,2A3,3,0,0,1-4069.329,3ZM-4068,2a1.5,1.5,0,0,0,1.5,1.5A1.5,1.5,0,0,0-4065,2a1.5,1.5,0,0,0-1.5-1.5A1.5,1.5,0,0,0-4068,2Z"
      transform="translate(4230 961)" fill="currentColor" />
    <path id="Union_8" data-name="Union 8"
      d="M-4076.329,3H-4080V1h3.67a3,3,0,0,1,2.83-2,3,3,0,0,1,2.83,2H-4060V3h-10.67a3,3,0,0,1-2.829,2A3,3,0,0,1-4076.329,3ZM-4075,2a1.5,1.5,0,0,0,1.5,1.5A1.5,1.5,0,0,0-4072,2a1.5,1.5,0,0,0-1.5-1.5A1.5,1.5,0,0,0-4075,2Z"
      transform="translate(4230 968)" fill="currentColor" />
  </g>
</svg>