<svg xmlns="http://www.w3.org/2000/svg" width="20" height="16" viewBox="0 0 20 16">
  <g id="Groupe_960" data-name="Groupe 960" transform="translate(222.928 597.739) rotate(180)">
    <g id="Tracé_633" data-name="Tracé 633" fill="none" stroke-miterlimit="10">
      <path d="M217.928,581.739l-5,2-5-2-5,2v14l5-2,5,2,5-2,5,2v-14Z" stroke="none"/>
      <path d="M 207.9282836914063 583.3549194335938 L 204.4282836914063 584.7548828125 L 204.4282836914063 595.5238037109375 L 207.9282836914063 594.123779296875 L 212.9282836914063 596.1238403320313 L 217.9282836914063 594.123779296875 L 221.4282836914063 595.5238037109375 L 221.4282836914063 584.7548828125 L 217.9282836914063 583.3549194335938 L 212.9282836914063 585.3548583984375 L 207.9282836914063 583.3549194335938 M 207.9282836914063 581.7393798828125 L 212.9282836914063 583.7393188476563 L 217.9282836914063 581.7393798828125 L 222.9282836914063 583.7393188476563 L 222.9282836914063 597.7393798828125 L 217.9282836914063 595.7393188476563 L 212.9282836914063 597.7393798828125 L 207.9282836914063 595.7393188476563 L 202.9282836914063 597.7393798828125 L 202.9282836914063 583.7393188476563 L 207.9282836914063 581.7393798828125 Z" stroke="none" fill="#707785"/>
    </g>
    <line id="Ligne_2035" data-name="Ligne 2035" y2="12.923" transform="translate(207.928 582.439)" fill="none" stroke="#707785" stroke-miterlimit="10" stroke-width="1.5"/>
    <line id="Ligne_2036" data-name="Ligne 2036" y2="12.923" transform="translate(217.928 582.439)" fill="none" stroke="#707785" stroke-miterlimit="10" stroke-width="1.5"/>
    <line id="Ligne_2037" data-name="Ligne 2037" y2="12.923" transform="translate(212.928 584.269)" fill="none" stroke="#707785" stroke-miterlimit="10" stroke-width="1.5"/>
  </g>
</svg>
