<svg xmlns="http://www.w3.org/2000/svg" width="20" height="20" viewBox="0 0 20 20">
  <g id="Infringement" transform="translate(40 -41)">
    <path
      d="M-30,42a9,9,0,0,0-9,9,9,9,0,0,0,9,9,9,9,0,0,0,9-9A9,9,0,0,0-30,42Zm7,9a6.962,6.962,0,0,1-1.4,4.186L-34.186,45.4A6.962,6.962,0,0,1-30,44,7,7,0,0,1-23,51Zm-14,0a6.962,6.962,0,0,1,1.4-4.186l9.787,9.787A6.962,6.962,0,0,1-30,58,7,7,0,0,1-37,51Z"
      fill="currentColor" />
    <rect width="20" height="20" transform="translate(-40 41)" fill="none" />
  </g>
</svg>