<svg xmlns="http://www.w3.org/2000/svg" width="15.417" height="9.4" viewBox="0 0 15.417 9.4">
    <g id="Label_poisson" transform="translate(0.717 0.7)">
        <path id="Tracé_97" data-name="Tracé 97"
            d="M228.053,84.04a2.116,2.116,0,0,0,0-1.333c-.529-1.787-3.112-3.334-5.829-3.334-2,0-3.825,1.626-4.913,2.706l-2.265-1.986a.605.605,0,0,0-.694.14.68.68,0,0,0-.139.726l.954,2.414-.954,2.413a.675.675,0,0,0-.051.253.667.667,0,0,0,.19.474.608.608,0,0,0,.694.14l2.265-1.987c1.089,1.08,2.915,2.707,4.913,2.707C224.941,87.373,227.525,85.826,228.053,84.04Z"
            transform="translate(-214.161 -79.373)" fill="none" stroke="currentColor" stroke-width="1.4" />
    </g>
</svg>