<svg xmlns="http://www.w3.org/2000/svg" version="1.1" x="0px" y="0px"
     viewBox="0 0 100 125">
    <g transform="translate(0,-952.36218)">
        <path style="text-indent:0;text-transform:none;direction:ltr;block-progression:tb;baseline-shift:baseline;color:#000000;enable-background:accumulate;"
              d="m 49.798146,965.37828 a 1.0001,1.0001 0 0 0 -0.25,0.0937 L 8.5481445,987.47196 a 1.0001,1.0001 0 0 0 0,1.7813 l 41.0000015,22.00004 a 1.0001,1.0001 0 0 0 0.9376,0 l 40.999995,-22.00004 a 1.0001,1.0001 0 0 0 0,-1.7813 L 50.485746,965.47198 a 1.0001,1.0001 0 0 0 -0.6876,-0.0937 z m 0.2188,2.125 38.874995,20.87498 -38.874995,20.84384 -38.875001,-20.84384 38.875001,-20.87498 z M 8.9231445,1001.3471 a 1.0001,1.0001 0 0 0 -0.375,1.9062 l 41.0000015,22 a 1.0001,1.0001 0 0 0 0.9376,0 l 40.999995,-22 a 1.0064722,1.0064722 0 1 0 -0.9376,-1.7812 l -40.531195,21.75 -40.5312015,-21.75 a 1.0001,1.0001 0 0 0 -0.4688,-0.125 1.0001,1.0001 0 0 0 -0.094,0 z m 0,14 a 1.0001,1.0001 0 0 0 -0.375,1.9062 l 41.0000015,22 a 1.0001,1.0001 0 0 0 0.9376,0 l 40.999995,-22 a 1.0064722,1.0064722 0 1 0 -0.9376,-1.7812 l -40.531195,21.75 -40.5312015,-21.75 a 1.0001,1.0001 0 0 0 -0.4688,-0.125 1.0001,1.0001 0 0 0 -0.094,0 z"
              fill="white" fill-opacity="1" stroke="none" marker="none" visibility="visible" display="inline"
              overflow="visible"/>
    </g>
</svg>