<svg xmlns="http://www.w3.org/2000/svg" width="18.683" height="26.192" viewBox="0 0 18.683 26.192">
  <path
    d="M12119.813,15774.193a23.43,23.43,0,0,0-11.207-.923,8.243,8.243,0,0,1-3.737.923H12103v-1.869h1.865a6.563,6.563,0,0,0,3.737-1.23,6.436,6.436,0,0,0,7.474,0,6.544,6.544,0,0,0,3.733,1.23h1.869v1.869Zm0-3.733a4.667,4.667,0,0,0-7.47,0,4.672,4.672,0,0,0-7.475,0h-.044l-1.777-6.239a.945.945,0,0,1,.617-1.2l1.2-.393v-4.314a1.875,1.875,0,0,1,1.868-1.869h2.8v-2.8h5.606v2.8h2.8a1.872,1.872,0,0,1,1.868,1.869v4.314l1.2.393a.929.929,0,0,1,.562.467.983.983,0,0,1,.056.729l-1.766,6.239Zm-1.868-8.437v-3.705h-11.208v3.705l5.606-1.841Zm-.736-9.79,1.754-3.3,1.65.875-1.754,3.3Zm-12.249-2.423,1.651-.875,1.753,3.3-1.65.875Zm6.968,1.924V15748h1.868v3.733Z"
    transform="translate(-12103 -15748.001)" fill="currentColor" />
</svg>