<svg xmlns="http://www.w3.org/2000/svg" width="18.682" height="19.616" viewBox="0 0 18.682 19.616">
  <path
    d="M3.868,9.781V3.8A.934.934,0,0,1,4.8,2.868H9.473V1h3.736V2.868H17.88a.934.934,0,0,1,.934.934V9.781l1.014.3a.934.934,0,0,1,.637,1.121l-1.416,5.668a4.663,4.663,0,0,1-3.972-1.863,4.671,4.671,0,0,1-7.473,0,4.663,4.663,0,0,1-3.972,1.863L2.217,11.206a.934.934,0,0,1,.637-1.121Zm1.868-.56,5.6-1.681,2.573.772,1.69.507,1.342.4V4.736H5.736V9.22ZM3.868,18.748A5.584,5.584,0,0,0,7.6,17.321a5.6,5.6,0,0,0,7.473,0,5.584,5.584,0,0,0,3.736,1.427h1.868v1.868H18.814a7.438,7.438,0,0,1-3.736-1,7.484,7.484,0,0,1-7.473,0,7.438,7.438,0,0,1-3.736,1H2V18.748Z"
    transform="translate(-2 -1)" fill="currentColor" />
</svg>