<svg xmlns="http://www.w3.org/2000/svg" width="22.019" height="17.064" viewBox="0 0 22.019 17.064">
  <g id="Note_d_impact" data-name="Note d&apos;impact" transform="translate(1.019 1.032)">
    <g id="Groupe_597" data-name="Groupe 597" transform="translate(17.17 -17.623)">
      <circle id="Ellipse_129" data-name="Ellipse 129" cx="1.5" cy="1.5" r="1.5" transform="translate(-2.87 23.623)" fill="#707785"/>
    </g>
    <g id="Groupe_597-2" data-name="Groupe 597" transform="translate(17.17 -17.373)">
      <g id="Label_poisson" data-name="Label poisson">
        <path id="Tracé_97" data-name="Tracé 97" d="M2.83,24.873a3.869,3.869,0,0,0-.165-1.117c-.672-3.07-4.031-4.5-4.815-4.866-2.169-1.013-4.8-1.674-5.385-1.485-.527.171.007,2.1-.486,2.377a20.019,20.019,0,0,0-4.066,2.65.392.392,0,0,1-.541.011l-3.19-3.01a.853.853,0,0,0-1.062.179,1.222,1.222,0,0,0-.213,1.216l1.46,4.045h0l-1.46,4.045a1.222,1.222,0,0,0,.213,1.216.854.854,0,0,0,1.062.179l3.19-3.011a.393.393,0,0,1,.541.012,20.061,20.061,0,0,0,4.066,2.65c.493.279-.041,2.206.486,2.377.584.189,3.216-.472,5.385-1.485.784-.366,4.143-1.8,4.815-4.866a3.869,3.869,0,0,0,.165-1.117Z" fill="none" stroke="#707785" stroke-width="2"/>
      </g>
    </g>
  </g>
</svg>
