<svg xmlns="http://www.w3.org/2000/svg" viewBox="0 0 25.32 22.16">
    <g id="Calque_2" data-name="Calque 2">
        <g id="Calque_1-2" data-name="Calque 1">
            <path d="M25,5.75H14.55V.31A.31.31,0,0,0,14.24,0H11.08a.3.3,0,0,0-.3.31V5.75H.31A.31.31,0,0,0,0,6.06V21.85a.31.31,0,0,0,.31.31H25a.31.31,0,0,0,.31-.31V6.06A.31.31,0,0,0,25,5.75ZM11.39.62h2.54V5.75H11.39V.62ZM24.7,21.55H.62V6.37H24.7V21.55Z"/>
            <path d="M13.4,10.07a.31.31,0,0,0,.31.31h9.13a.31.31,0,1,0,0-.62H13.71A.31.31,0,0,0,13.4,10.07Z"/>
            <path d="M22.84,13.65H13.71a.31.31,0,1,0,0,.62h9.13a.31.31,0,1,0,0-.62Z"/>
            <path d="M22.84,17.54H13.71a.31.31,0,1,0,0,.62h9.13a.31.31,0,1,0,0-.62Z"/>
            <path d="M10.94,9.62H2.48a.29.29,0,0,0-.3.3V18a.3.3,0,0,0,.3.31h8.46a.31.31,0,0,0,.31-.31V9.92A.3.3,0,0,0,10.94,9.62Zm-.31,8.06H2.79V10.23h7.84Z"/>
            <path d="M12.66.85a.89.89,0,0,0,0,1.77.89.89,0,1,0,0-1.77Zm0,1.15a.27.27,0,1,1,.27-.27A.27.27,0,0,1,12.66,2Z"/>
        </g>
    </g>
</svg>