<svg xmlns="http://www.w3.org/2000/svg" viewBox="0 0 29.35 20.91">
    <defs>
        <style>.cls-1{fill:#e6e6e6;}.cls-1,.cls-2{fill-rule:evenodd;}</style>
    </defs>
    <g id="Calque_2" data-name="Calque 2">
        <g id="Calque_1-2" data-name="Calque 1">
            <path class="cls-1" d="M.59,20.32H28.77V.59H8V7.68H8a.3.3,0,0,1-.3.3H.59Z"/>
            <path class="cls-2"
                  d="M29.06,20.91H.29A.29.29,0,0,1,0,20.62H0v-13H0v0H0v0H.08L7.47.09A.27.27,0,0,1,7.68,0H29.05a.29.29,0,0,1,.3.29h0V20.62a.29.29,0,0,1-.3.29ZM.59,20.32H28.77V.59H8V7.68H8a.3.3,0,0,1-.3.3H.59ZM1,7.39H7.39V1ZM25.46,4.77c.09,0,.15.13.15.29s-.06.29-.15.29H18.61c-.08,0-.15-.13-.15-.29s.07-.29.15-.29Zm0,3.59c.09,0,.15.14.15.3s-.06.29-.15.29H18.61c-.08,0-.15-.13-.15-.29s.07-.3.15-.3Zm.05,3.6c.06,0,.1.13.1.29s0,.3-.1.3H18.57c-.06,0-.11-.13-.11-.3s.05-.29.11-.29Zm0,3.6c.06,0,.1.13.1.29s0,.29-.1.29H18.57c-.06,0-.11-.13-.11-.29s.05-.29.11-.29Z"/>
            <path d="M10.29,16.32a5.87,5.87,0,1,1,5.87-5.87A5.87,5.87,0,0,1,10.29,16.32Zm0-11.27a5.41,5.41,0,1,0,5.41,5.4A5.4,5.4,0,0,0,10.29,5.05Z"/>
            <path d="M10.29,12.78a2.33,2.33,0,1,1,2.33-2.33A2.33,2.33,0,0,1,10.29,12.78Zm0-4.19a1.87,1.87,0,1,0,1.86,1.86A1.87,1.87,0,0,0,10.29,8.59Z"/>
            <circle cx="10.29" cy="10.45" r="0.37"/>
            <path d="M5.4,10.69H3.77a.22.22,0,0,1-.23-.24.22.22,0,0,1,.23-.23H5.4a.22.22,0,0,1,.23.23A.22.22,0,0,1,5.4,10.69Z"/>
            <path d="M16.81,10.69H15.18a.22.22,0,0,1-.23-.24.22.22,0,0,1,.23-.23h1.63a.22.22,0,0,1,.24.23A.23.23,0,0,1,16.81,10.69Z"/>
            <path d="M10.29,5.8a.22.22,0,0,1-.23-.24V3.93a.23.23,0,1,1,.46,0V5.56A.22.22,0,0,1,10.29,5.8Z"/>
            <path d="M10.29,17.21a.22.22,0,0,1-.23-.23V15.35a.23.23,0,1,1,.46,0V17A.22.22,0,0,1,10.29,17.21Z"/>
            <polygon class="cls-1" points="1 7.39 7.39 7.39 7.39 1 1 7.39"/>
        </g>
    </g>
</svg>