<svg xmlns="http://www.w3.org/2000/svg" xmlns:xlink="http://www.w3.org/1999/xlink" width="20" height="20"
  viewBox="0 0 20 20">
  <defs>
    <clipPath id="clip">
      <use xlink:href="#fill" />
    </clipPath>
    <clipPath id="clip-2">
      <use xlink:href="#fill-2" />
    </clipPath>
    <clipPath id="clip-3">
      <use xlink:href="#fill-3" />
    </clipPath>
  </defs>
  <g id="Summary" transform="translate(-200)">
    <path id="Tracé_1345" data-name="Tracé 1345" d="M216,4V16H204V4h12M202,2V18h16V2Z" fill="currentColor" />
    <g id="Rectangle_6085" data-name="Rectangle 6085" transform="translate(206 6)" fill="none" stroke="currentColor"
      stroke-miterlimit="10" stroke-width="2">
      <rect id="fill" width="8" height="1.5" stroke="none" />
      <path d="M0,0.5h8M7,0v1.5M8,1h-8M1,1.5v-1.5" fill="none" clip-path="url(#clip)" />
    </g>
    <g id="Rectangle_6086" data-name="Rectangle 6086" transform="translate(206 9.25)" fill="none" stroke="currentColor"
      stroke-miterlimit="10" stroke-width="2">
      <rect id="fill-2" width="8" height="1.5" stroke="none" />
      <path d="M0,0.5h8M7,0v1.5M8,1h-8M1,1.5v-1.5" fill="none" clip-path="url(#clip-2)" />
    </g>
    <g id="Rectangle_6087" data-name="Rectangle 6087" transform="translate(206 12.5)" fill="none" stroke="currentColor"
      stroke-miterlimit="10" stroke-width="2">
      <rect id="fill-3" width="8" height="1.5" stroke="none" />
      <path d="M0,0.5h8M7,0v1.5M8,1h-8M1,1.5v-1.5" fill="none" clip-path="url(#clip-3)" />
    </g>
    <rect id="Rectangle_6088" data-name="Rectangle 6088" width="20" height="20" transform="translate(200)"
      fill="none" />
  </g>
</svg>