<svg xmlns="http://www.w3.org/2000/svg" width="1em" height="1em" viewBox="0 0 18 18">
  <path
    d="M313.031,604.768l-3.818-4.774h0a2.065,2.065,0,0,0-3-.317,2.279,2.279,0,0,0-.783,1.731.483.483,0,0,0,0,.074c-.274-.008-.557-.008-.83,0,0-.024.005-.048.005-.073a2.184,2.184,0,0,0-2.134-2.231,2.094,2.094,0,0,0-1.646.817h0l-3.8,4.744a3.764,3.764,0,0,0-.321.4h0a3.923,3.923,0,0,0,.811,5.312,3.525,3.525,0,0,0,5.07-.849,3.9,3.9,0,0,0,.64-1.6l.293-1.366a11.057,11.057,0,0,1,2.994,0l.279,1.3a3.659,3.659,0,0,0,4.132,3.2,3.783,3.783,0,0,0,3.05-4.329,3.924,3.924,0,0,0-.65-1.664S313.129,604.876,313.031,604.768Zm-13.379,5.318a2.455,2.455,0,1,1,2.454-2.455h0a2.453,2.453,0,0,1-2.453,2.454Zm4.157-4.772.1-.466.09-.419a11.511,11.511,0,0,1,2.046,0l.091.422.1.459A11.24,11.24,0,0,0,303.808,605.314Zm6.58,4.772a2.455,2.455,0,1,1,2.455-2.455h0a2.454,2.454,0,0,1-2.454,2.454Z"
    transform="translate(-296.024 -593.175)" fill="currentColor" />
</svg>