<svg xmlns="http://www.w3.org/2000/svg" width="24.605" height="20.505" viewBox="0 0 24.605 20.505"><path d="M24.245,14.881,20.278,4.332s0,0,0-.006h0a3.588,3.588,0,0,0-6.947,1.263V10.2h-2.05V5.588A3.589,3.589,0,0,0,4.33,4.326s0,0,0,.006L.361,14.878a0,0,0,0,1,0,0,5.639,5.639,0,1,0,10.918,1.987v-.513h2.05v.513a5.639,5.639,0,1,0,10.917-1.985ZM5.639,20.454a3.588,3.588,0,1,1,3.588-3.588A3.592,3.592,0,0,1,5.639,20.454Zm13.328,0a3.591,3.591,0,1,1,3.588-3.588A3.592,3.592,0,0,1,18.967,20.454Z" transform="translate(0 -2)" fill="#fff"/></svg>