<svg xmlns="http://www.w3.org/2000/svg" width="20" height="20" viewBox="0 0 20 20">
  <g id="Pinpoint" transform="translate(-160)">
    <path id="Tracé_1358" data-name="Tracé 1358" d="M164,8c0,5,6,10,6,10" fill="#707785"/>
    <path id="Tracé_1359" data-name="Tracé 1359" d="M170,2a5.961,5.961,0,0,0-5.944,6.777c.016.135.038.27.062.4l.011.055C164.964,13.792,170,18,170,18s5.036-4.208,5.871-8.763l.011-.055c.024-.135.046-.27.062-.4A5.961,5.961,0,0,0,170,2Zm0,9a3,3,0,1,1,3-3A3,3,0,0,1,170,11Z" fill="#707785"/>
    <rect id="Rectangle_6099" data-name="Rectangle 6099" width="20" height="20" transform="translate(160)" fill="none"/>
  </g>
</svg>
