<svg id="Observation" xmlns="http://www.w3.org/2000/svg" width="20" height="20" viewBox="0 0 20 20">
  <rect width="20" height="20" fill="none" />
  <g fill="currentColor" stroke-miterlimit="10">
    <path
      d="M 15.5 17 C 13.57009029388428 17 12 15.42990970611572 12 13.5 L 12 12.11200046539307 L 12 11.31332969665527 L 11.22109985351563 11.13675022125244 C 10.82866764068604 11.0477819442749 10.42606067657471 11.0018138885498 10.02403163909912 11.0000524520874 C 10.30024242401123 11.00124073028564 10.57746124267578 11.0228853225708 10.8484001159668 11.06443977355957 L 12 11.24106979370117 L 12 10.07600021362305 L 12 9.093000411987305 L 12 8.244170188903809 L 11.16244983673096 8.106280326843262 C 10.85622978210449 8.055870056152344 10.44736003875732 7.998000144958496 10 7.998000144958496 C 9.552639961242676 7.998000144958496 9.143770217895508 8.055870056152344 8.837550163269043 8.106280326843262 L 8 8.244170188903809 L 8 9.093000411987305 L 8 10.07699966430664 L 8 11.2455997467041 L 9.154560089111328 11.06497955322266 C 9.42243480682373 11.02307319641113 9.698649406433105 11.00124740600586 9.975924491882324 11.0000524520874 C 9.573919296264648 11.0018196105957 9.171308517456055 11.0477876663208 8.778900146484375 11.13675022125244 L 8 11.31332969665527 L 8 12.11200046539307 L 8 13.5 C 8 15.42990970611572 6.429910182952881 17 4.5 17 C 2.570090055465698 17 1 15.42990970611572 1 13.5 C 1 13.03215980529785 1.091449975967407 12.57750988006592 1.27180004119873 12.1486701965332 L 1.28702437877655 12.11246967315674 L 5.101890087127686 3.952510118484497 L 5.178922653198242 3.78773832321167 C 5.439716339111328 3.304912328720093 5.943906784057617 3 6.5 3 C 7.327099800109863 3 8 3.672899961471558 8 4.5 L 8 5.061999797821045 L 8 6.183760166168213 L 9.114399909973145 6.055439949035645 C 9.454680442810059 6.016250133514404 9.736089706420898 5.998000144958496 10 5.998000144958496 C 10.26076984405518 5.998000144958496 10.54312038421631 6.016039848327637 10.88858032226563 6.054769992828369 L 12 6.179389953613281 L 12 5.060999870300293 L 12 4.5 C 12 3.672899961471558 12.67290019989014 3 13.5 3 C 14.06018733978271 3 14.56766128540039 3.309339284896851 14.82675552368164 3.798352241516113 L 14.89809036254883 3.952470064163208 L 18.64599990844727 11.97018814086914 L 18.64599990844727 11.98406982421875 L 18.72974967956543 12.15236186981201 C 18.90907287597656 12.58011913299561 19 13.03350162506104 19 13.5 C 19 15.42990970611572 17.42991065979004 17 15.5 17 Z M 15.5 10.25 C 13.70794010162354 10.25 12.25 11.70794010162354 12.25 13.5 C 12.25 15.29205989837646 13.70794010162354 16.75 15.5 16.75 C 17.29206085205078 16.75 18.75 15.29205989837646 18.75 13.5 C 18.75 11.70794010162354 17.29206085205078 10.25 15.5 10.25 Z M 4.5 10.25 C 2.707940101623535 10.25 1.25 11.70794010162354 1.25 13.5 C 1.25 15.29205989837646 2.707940101623535 16.75 4.5 16.75 C 6.292059898376465 16.75 7.75 15.29205989837646 7.75 13.5 C 7.75 11.70794010162354 6.292059898376465 10.25 4.5 10.25 Z"
      stroke="none" />
    <path
      d="M 13 10.06495571136475 C 13.70204067230225 9.552577972412109 14.56627750396729 9.25 15.5 9.25 C 15.77562522888184 9.25 16.04530715942383 9.276392936706543 16.30645370483398 9.326748847961426 L 13.9340877532959 4.251050472259521 C 13.86002540588379 4.125204086303711 13.71336269378662 4 13.5 4 C 13.22430038452148 4 13 4.224299907684326 13 4.5 L 13 7.297770023345947 L 11.10828113555908 7.085675716400146 C 11.18476295471191 7.096925735473633 11.25709533691406 7.108408451080322 11.32489013671875 7.119569778442383 L 13 7.395349979400635 L 13 10.06495571136475 M 7 10.06495571136475 L 7 7.395349979400635 L 8.67510986328125 7.119569778442383 C 8.725531578063965 7.111268520355225 8.778477668762207 7.102787971496582 8.833767890930176 7.094357490539551 L 7 7.305520057678223 L 7 4.5 C 7 4.224299907684326 6.775700092315674 4 6.5 4 C 6.287984848022461 4 6.141829490661621 4.123627662658691 6.067324161529541 4.248665809631348 L 3.69323992729187 9.326807975769043 C 3.954513072967529 9.276401519775391 4.224231719970703 9.25 4.5 9.25 C 5.433722496032715 9.25 6.297959804534912 9.552577972412109 7 10.06495571136475 M 15.5 18 C 13.01500034332275 18 11 15.98499965667725 11 13.5 L 11 12.11200046539307 C 10.67800045013428 12.03899955749512 10.3430004119873 12 10 12 C 9.656000137329102 12 9.321999549865723 12.03899955749512 9 12.11200046539307 L 9 13.5 C 9 15.98499965667725 6.985000133514404 18 4.5 18 C 2.015000104904175 18 0 15.98499965667725 0 13.5 C 0 12.88300037384033 0.125 12.29599952697754 0.3499999940395355 11.76099967956543 L 0.3479999899864197 11.76099967956543 L 0.3540000021457672 11.74699974060059 L 4.196000099182129 3.526999950408936 C 4.576000213623047 2.630000114440918 5.464000225067139 2 6.5 2 C 7.88100004196167 2 9 3.11899995803833 9 4.5 L 9 5.061999797821045 C 9.329999923706055 5.02400016784668 9.661999702453613 4.998000144958496 10 4.998000144958496 C 10.33800029754639 4.998000144958496 10.67000007629395 5.02400016784668 11 5.060999870300293 L 11 4.5 C 11 3.11899995803833 12.11900043487549 2 13.5 2 C 14.53600025177002 2 15.42399978637695 2.630000114440918 15.80399990081787 3.526999950408936 L 15.80399990081787 3.529000043869019 L 19.65200042724609 11.76099967956543 L 19.64999961853027 11.76099967956543 C 19.875 12.29599952697754 20 12.88300037384033 20 13.5 C 20 15.98499965667725 17.98500061035156 18 15.5 18 Z M 15.5 11.25 C 14.25899982452393 11.25 13.25 12.25899982452393 13.25 13.5 C 13.25 14.74100017547607 14.25899982452393 15.75 15.5 15.75 C 16.74099922180176 15.75 17.75 14.74100017547607 17.75 13.5 C 17.75 12.25899982452393 16.74099922180176 11.25 15.5 11.25 Z M 4.5 11.25 C 3.259000062942505 11.25 2.25 12.25899982452393 2.25 13.5 C 2.25 14.74100017547607 3.259000062942505 15.75 4.5 15.75 C 5.741000175476074 15.75 6.75 14.74100017547607 6.75 13.5 C 6.75 12.25899982452393 5.741000175476074 11.25 4.5 11.25 Z M 10 8.998000144958496 C 9.659999847412109 8.998000144958496 9.328000068664551 9.038999557495117 9 9.093000411987305 L 9 10.07699966430664 C 9.326000213623047 10.02600002288818 9.659999847412109 10 10 10 C 10.34000015258789 10 10.67399978637695 10.02600002288818 11 10.07600021362305 L 11 9.093000411987305 C 10.67199993133545 9.038999557495117 10.34000015258789 8.998000144958496 10 8.998000144958496 Z"
      stroke="none" fill="currentColor" />
  </g>
</svg>
