<svg width="32" height="38" version="1.1" viewBox="0 0 8.4667 10.054" xml:space="preserve" xmlns="http://www.w3.org/2000/svg"><g><path d="m1.0583 0c-0.58632-1.5666e-16 -1.0583 0.47202-1.0583 1.0583v6.35c-1.5666e-16 0.58632 0.47202 1.0583 1.0583 1.0583h2.1167l1.0583 1.5875 1.0583-1.5875h2.1167c0.58632 0 1.0583-0.47202 1.0583-1.0583v-6.35c0-0.58632-0.47202-1.0583-1.0583-1.0583h-6.35z" fill="#5697d2" stroke-width=".26458"/><g transform="matrix(.26458 0 0 .26458 22.754 55.893)" fill="#fff" data-name="Groupe 5091"><path d="m-67.694-199 1.333 8h-7.277l1.336-8zm0-2h-4.6a2 2 0 0 0-1.977 1.675l-1.729 10.325h12l-1.721-10.325a2 2 0 0 0-1.979-1.675z" data-name="Tracé 1696"/><rect transform="rotate(90,62,-126)" width="2" height="12" data-name="Rectangle 6496"/><rect transform="translate(-70.75,-204.25)" width="1.5" height="2.25" data-name="Rectangle 6497"/><rect transform="rotate(45 213.01 -178.83)" width="1.5" height="2.25" data-name="Rectangle 6498"/><rect transform="rotate(-45 -282.26 -8.0223)" width="1.5" height="2.25" data-name="Rectangle 6499"/></g></g></svg>
