<svg xmlns="http://www.w3.org/2000/svg" xmlns:xlink="http://www.w3.org/1999/xlink" width="1200" height="1200"
     viewBox="0 0 1200 1200">
    <g transform="translate(600 600) scale(1.5 1.5) rotate(0) translate(-600 -600)" style="fill:#05055e">
        <svg fill="#e2e2e9" xmlns="http://www.w3.org/2000/svg" xmlns:xlink="http://www.w3.org/1999/xlink" version="1.1" x="0px" y="0px" viewBox="0 0 16 16" style="enable-background:new 0 0 16 16;" xml:space="preserve">
            <path d="M10.345,5.938L9.287,6.996C9.505,7.274,9.64,7.62,9.64,8c0,0.904-0.736,1.64-1.64,1.64c-0.38,0-0.726-0.135-1.004-0.353  L6.032,10.25C6.646,10.525,7.315,10.68,8,10.68c1.515,0,2.963-0.723,3.872-1.936L12.43,8l-0.558-0.744  C11.46,6.707,10.934,6.265,10.345,5.938z"></path>
            <path
                d="M6.36,8c0-0.904,0.736-1.64,1.64-1.64c0.38,0,0.726,0.135,1.004,0.353L9.968,5.75C9.354,5.475,8.685,5.32,8,5.32  c-1.515,0-2.963,0.723-3.872,1.936L3.57,8l0.558,0.744c0.412,0.549,0.938,0.992,1.527,1.318l1.058-1.058  C6.495,8.726,6.36,8.38,6.36,8z"></path><path
                d="M9.24,8c0-0.27-0.089-0.518-0.236-0.721L7.279,9.004C7.482,9.151,7.73,9.24,8,9.24C8.684,9.24,9.24,8.684,9.24,8z"></path>
            <path
                d="M6.76,8c0,0.27,0.089,0.518,0.236,0.721l1.726-1.725C8.518,6.849,8.27,6.76,8,6.76C7.316,6.76,6.76,7.316,6.76,8z"></path>
        </svg>
    </g>
</svg>