<svg id="Filtre_zone_zone_existante_30_px" data-name="Filtre zone_zone existante_30 px" xmlns="http://www.w3.org/2000/svg" width="30" height="30" viewBox="0 0 30 30">
  <g id="Groupe_295" data-name="Groupe 295" transform="translate(-1591 -184)">
    <rect id="Rectangle_1391" data-name="Rectangle 1391" width="30" height="30" transform="translate(1591 184)" fill="#ededed"/>
  </g>
  <g id="Calque_2" data-name="Calque 2" transform="translate(3.25 25.62) rotate(-90)">
    <path id="Tracé_341" data-name="Tracé 341" d="M14.813,19.632l1.165,1.462.332.417,2.546-1.947" transform="translate(-1.236 -2.813)" fill="none" stroke="#515151" stroke-width="1.5"/>
    <path id="Tracé_342" data-name="Tracé 342" d="M21.625,16.618c.36-.345,2-1.75,2-1.75L23.29,12.33" transform="translate(-2.674 -0.78)" fill="none" stroke="#515151" stroke-width="1.5"/>
    <line id="Ligne_1170" data-name="Ligne 1170" x1="1.31" y1="3.76" transform="translate(18.95 5.96)" fill="none" stroke="#515151" stroke-width="1.5" stroke-dasharray="2.898 2.173"/>
    <path id="Tracé_343" data-name="Tracé 343" d="M20.92,5.48l-.66-1.89L18.28,3.3" transform="translate(-2.32)" fill="none" stroke="#515151" stroke-width="1.5"/>
    <line id="Ligne_1171" data-name="Ligne 1171" x1="4.63" y1="0.69" transform="translate(9.771 2.23)" fill="none" stroke="#515151" stroke-width="1.5" stroke-dasharray="3.408 2.556"/>
    <path id="Tracé_344" data-name="Tracé 344" d="M9.86,2.04,7.88,1.75,6.7,3.844" transform="translate(-0.761)" fill="none" stroke="#515151" stroke-width="1.5"/>
    <path id="Tracé_345" data-name="Tracé 345" d="M4.871,7.031C4.626,7.466,3.5,9.091,3.5,9.091l1.376,1.545" transform="translate(0.318 -1.504)" fill="none" stroke="#515151" stroke-width="1.5"/>
    <path id="Tracé_224" data-name="Tracé 224" d="M9.914,20.74,14.18,8,1.448,12.249l2.973,2.956L.18,19.455,2.733,22l4.241-4.241Z" transform="translate(0.44 -0.25)" fill="#515151"/>
  </g>
</svg>
