<svg id="Label_quartier" xmlns="http://www.w3.org/2000/svg" width="14" height="16" viewBox="0 0 14 16">
    <path id="Tracé_486" data-name="Tracé 486"
          d="M13.889,12.4l1.206,1.24a6.25,6.25,0,0,1-4.317,2.7V9.2h2.333V7.6H10.778V6.656A2.4,2.4,0,0,0,12.333,4.4a2.334,2.334,0,1,0-4.667,0A2.4,2.4,0,0,0,9.222,6.656V7.6H6.889V9.2H9.222v7.136a6.25,6.25,0,0,1-4.317-2.7L6.111,12.4,3,10v2.4C3,15.5,6.827,18,10,18s7-2.5,7-5.6V10ZM10,3.6a.8.8,0,1,1-.778.8A.791.791,0,0,1,10,3.6Z"
          transform="translate(-3 -2)" fill="#969696"/>
</svg>
