<svg xmlns="http://www.w3.org/2000/svg" width="15.051" height="17" viewBox="0 0 15.051 17">
  <g id="Label_contrôle" transform="translate(0.526)">
    <line id="Ligne_1220" data-name="Ligne 1220" y2="2.028" transform="translate(6.995)" fill="none" stroke="#969696" stroke-miterlimit="10" stroke-width="1.5"/>
    <line id="Ligne_1221" data-name="Ligne 1221" y1="1.434" x2="1.46" transform="translate(12.54 2.828)" fill="none" stroke="#969696" stroke-miterlimit="10" stroke-width="1.5"/>
    <rect id="Rectangle_1678" data-name="Rectangle 1678" width="11.782" height="2.028" transform="translate(1.104 14.971)" fill="#969696"/>
    <g id="Tracé_381" data-name="Tracé 381" transform="translate(-89.917 -183.878)" fill="none" stroke-miterlimit="10">
      <path d="M102.8,197.946H91.02l2.1-9.515a1.543,1.543,0,0,1,1.544-1.145h4.488a1.543,1.543,0,0,1,1.544,1.145Z" stroke="none"/>
      <path d="M 100.9341354370117 196.4464263916016 L 99.24479675292969 188.8048553466797 C 99.22682189941406 188.7959594726563 99.19639587402344 188.7860107421875 99.15477752685547 188.7860107421875 L 94.66719818115234 188.7860107421875 C 94.62558746337891 188.7860107421875 94.59515380859375 188.7959594726563 94.57717895507813 188.8048400878906 L 92.88783264160156 196.4464263916016 L 100.9341354370117 196.4464263916016 M 102.8019638061523 197.9464263916016 L 91.01999664306641 197.9464263916016 L 93.12358856201172 188.4310607910156 C 93.27030944824219 187.7656707763672 93.91622161865234 187.2860107421875 94.66719818115234 187.2860107421875 L 99.15477752685547 187.2860107421875 C 99.90573883056641 187.2860107421875 100.5516586303711 187.7656707763672 100.6983795166016 188.4310607910156 L 102.8019638061523 197.9464263916016 Z" stroke="none" fill="#969696"/>
    </g>
    <line id="Ligne_1222" data-name="Ligne 1222" x1="1.46" y1="1.434" transform="translate(0 2.828)" fill="none" stroke="#969696" stroke-miterlimit="10" stroke-width="1.5"/>
  </g>
</svg>
