<svg id="Mesure_azimut_distance_40_px" data-name="Mesure azimut distance_40 px" xmlns="http://www.w3.org/2000/svg"
     width="40" height="40" viewBox="0 0 40 40">
    <rect id="Rectangle_1596" data-name="Rectangle 1596" width="40" height="40" fill="#707785"/>
    <g id="Picto_mesure_azimut-distance" transform="translate(8.9 6.9)">
        <path id="Tracé_380" data-name="Tracé 380" d="M24.1,24.1H.1V.1H2.02V22.18H24.1Z" fill="#E5E5EB"/>
        <path id="Tracé_381" data-name="Tracé 381"
              d="M19.07,23.1a18.48,18.48,0,0,0-.37-2.76l1.95-.42a19.46,19.46,0,0,1,.42,3.13l-2,.1Zm-.87-4.58a18.84,18.84,0,0,0-1.1-2.62l1.77-.9a19.08,19.08,0,0,1,1.23,2.91Zm-2.06-4.25A19,19,0,0,0,14.4,12l1.47-1.34a20.18,20.18,0,0,1,1.94,2.48Zm-3.09-3.58A18.71,18.71,0,0,0,10.79,9l1.08-1.68A20,20,0,0,1,14.38,9.2ZM9.15,8A18.12,18.12,0,0,0,6.52,7l.61-2a20.59,20.59,0,0,1,2.92,1.2ZM4.69,6.47a17.69,17.69,0,0,0-2.81-.35l.09-2a20.6,20.6,0,0,1,3.13.39Z"
              transform="translate(0 -1)" fill="#E5E5EB"/>
    </g>
</svg>
