<svg xmlns="http://www.w3.org/2000/svg" viewBox="0 0 20.48 23.8"><g id="Calque_2" data-name="Calque 2"><g id="Calque_1-2" data-name="Calque 1"><path d="M18.5,3.83A6.73,6.73,0,0,1,18.77,2,1.51,1.51,0,0,0,18.5.63,1.59,1.59,0,0,0,17.22,0h-2s0,0-.07,0h0S11.29,2.42,5.33,0h0A.21.21,0,0,0,5.2,0H3.26A1.68,1.68,0,0,0,2,.6,1.43,1.43,0,0,0,1.71,2,6.73,6.73,0,0,1,2,3.8,6.21,6.21,0,0,1,.69,7.69a3.06,3.06,0,0,0-.69,2V22A1.86,1.86,0,0,0,1.88,23.8H7.74a1.9,1.9,0,0,0,1.71-1.07H11a1.89,1.89,0,0,0,1.71,1.07H18.6A1.86,1.86,0,0,0,20.48,22V9.73a3.18,3.18,0,0,0-.69-2A6.45,6.45,0,0,1,18.5,3.83ZM1.19,8.13A6.69,6.69,0,0,0,2.63,3.86a8.71,8.71,0,0,0-.26-2A.92.92,0,0,1,2.53,1,1,1,0,0,1,3.29.66H4.91A5.88,5.88,0,0,0,8,5.59,1.72,1.72,0,0,1,9,7.13v7.53H.63V9.73A2.36,2.36,0,0,1,1.19,8.13ZM9,16.67H.63V15.26H8.92v1.41ZM.63,17.3H8.92v1.41H.63Zm7.11,5.9H1.84A1.2,1.2,0,0,1,.63,22v-2.7H8.92V22A1.14,1.14,0,0,1,7.74,23.2Zm1.87-1.06v-15A2.29,2.29,0,0,0,8.23,5,5.33,5.33,0,0,1,5.53.78a14.22,14.22,0,0,0,5,1A10.38,10.38,0,0,0,14.91.88,5.26,5.26,0,0,1,12.21,5a2.35,2.35,0,0,0-1.38,2.11v15Zm1.91-4.84h8.3v1.41h-8.3Zm8.33-.63H11.52V15.26h8.3v1.41ZM18.63,23.2H12.74A1.21,1.21,0,0,1,11.52,22v-2.7h8.3V22A1.14,1.14,0,0,1,18.63,23.2Zm1.22-8.54H11.52V7.13a1.69,1.69,0,0,1,1-1.54A5.92,5.92,0,0,0,15.6.66h1.62A1,1,0,0,1,18,1a.92.92,0,0,1,.16.82,6.88,6.88,0,0,0-.26,2,6.64,6.64,0,0,0,1.45,4.27,2.52,2.52,0,0,1,.55,1.6v4.93Z"/><path d="M18,8.45A.29.29,0,0,0,18,8l-.5-.41a.44.44,0,0,0-.33-.06,1.14,1.14,0,0,1-1.31-.22.35.35,0,0,0-.53,0A1.13,1.13,0,0,1,14,7.57a.34.34,0,0,0-.33.06L13.17,8a.29.29,0,0,0-.07.41,1.31,1.31,0,0,1,.23,1,2.44,2.44,0,0,0,.17,2.61,2.19,2.19,0,0,0,1.38.81c.23.07.36.1.43.19a.32.32,0,0,0,.29.16.33.33,0,0,0,.3-.16c.07-.09.2-.12.43-.19a2.19,2.19,0,0,0,1.38-.81,2.44,2.44,0,0,0,.17-2.61C17.68,9.11,17.94,8.6,18,8.45Zm-.89,3.23a1.59,1.59,0,0,1-1,.6,2.56,2.56,0,0,0-.56.18,1.67,1.67,0,0,0-.56-.18,1.78,1.78,0,0,1-1-.6,1.88,1.88,0,0,1-.1-2,1.65,1.65,0,0,0-.13-1.35l.13-.13a1.85,1.85,0,0,0,1.65-.25,1.83,1.83,0,0,0,1.65.25l.13.13a1.65,1.65,0,0,0-.13,1.35A1.75,1.75,0,0,1,17.15,11.68Z"/></g></g></svg>