<svg id="Alerte" xmlns="http://www.w3.org/2000/svg" width="55" height="50" viewBox="0 0 55 50">
    <g id="Polygone_4" data-name="Polygone 4" fill="none" stroke-linejoin="round">
        <path d="M27.062.8a.5.5,0,0,1,.876,0L54.592,49.259a.5.5,0,0,1-.438.741H.846a.5.5,0,0,1-.438-.741Z"
              stroke="none"/>
        <path d="M 27.5 8.300148010253906 L 6.765083312988281 45.99999618530273 L 48.23490524291992 45.99999618530273 L 27.5 8.300148010253906 M 27.5 0.5375175476074219 C 27.67156410217285 0.5375175476074219 27.8431282043457 0.6238632202148438 27.9381103515625 0.7965507507324219 L 54.59246826171875 49.25904083251953 C 54.7757453918457 49.59226226806641 54.53466796875 49.99999618530273 54.15436553955078 49.99999618530273 L 0.8456344604492188 49.99999618530273 C 0.46533203125 49.99999618530273 0.2242546081542969 49.59226226806641 0.4075241088867188 49.25904083251953 L 27.0618896484375 0.7965507507324219 C 27.1568717956543 0.6238632202148438 27.32843589782715 0.5375175476074219 27.5 0.5375175476074219 Z"
              stroke="none" fill="#05065f"/>
    </g>
    <line id="Ligne_1592" data-name="Ligne 1592" y2="12" transform="translate(27.5 21.5)" fill="none" stroke="#05065f"
          stroke-width="4"/>
    <line id="Ligne_1593" data-name="Ligne 1593" y2="4" transform="translate(27.5 37.765)" fill="none" stroke="#05065f"
          stroke-width="4"/>
</svg>
