<svg xmlns="http://www.w3.org/2000/svg" viewBox="0 0 29.61 22.04"><g id="Calque_2" data-name="Calque 2"><g id="Calque_1-2" data-name="Calque 1"><path d="M7.13,1.8A3.77,3.77,0,0,0,9.87,3,3.75,3.75,0,0,0,12.61,1.8,2.93,2.93,0,0,1,17,1.8,3.77,3.77,0,0,0,19.74,3,3.77,3.77,0,0,0,22.48,1.8a2.93,2.93,0,0,1,4.39,0A3.75,3.75,0,0,0,29.61,3V2.17a3,3,0,0,1-2.2-1,3.74,3.74,0,0,0-5.47,0,3,3,0,0,1-2.2,1,3,3,0,0,1-2.2-1,3.74,3.74,0,0,0-5.47,0,3,3,0,0,1-2.2,1,3,3,0,0,1-2.2-1,3.74,3.74,0,0,0-5.47,0,3,3,0,0,1-2.2,1V3A3.77,3.77,0,0,0,2.74,1.8a3.06,3.06,0,0,1,1.9-1V4.22A3.81,3.81,0,0,0,2.2,5.4a3,3,0,0,1-2.2,1V7.2A3.77,3.77,0,0,0,2.74,6a3.06,3.06,0,0,1,1.9-1v8.84a3.67,3.67,0,1,0,4.07,3.64H7.9a2.86,2.86,0,1,1-2.85-2.85.4.4,0,0,0,.4-.41V5.07A3.18,3.18,0,0,1,7.13,6a3.75,3.75,0,0,0,5.48,0A2.95,2.95,0,0,1,17,6a3.75,3.75,0,0,0,5.48,0,2.92,2.92,0,0,1,2.19-1,3,3,0,0,1,2.2,1A3.75,3.75,0,0,0,29.61,7.2V6.38a3,3,0,0,1-2.2-1,3.74,3.74,0,0,0-5.47,0,3,3,0,0,1-4.4,0,3.74,3.74,0,0,0-5.47,0,3,3,0,0,1-4.4,0A4,4,0,0,0,5.45,4.24V.86A3.12,3.12,0,0,1,7.13,1.8Z"/><path d="M28.92,12.21a.43.43,0,0,0-.44.06l-3.85,3.32c-.69-1.4-3-5.13-7.35-5.13a9,9,0,0,0-6.08,2.27.4.4,0,0,0,0,.57c.79.8,2.26,2.34,2.85,3-.57.65-2,2.27-2.76,3a.4.4,0,0,0-.12.29.38.38,0,0,0,.12.29,9.16,9.16,0,0,0,6,2.18c4.6,0,6.72-3.69,7.37-5.11l3.83,3.29a.39.39,0,0,0,.27.1.47.47,0,0,0,.17,0,.43.43,0,0,0,.24-.37V12.58A.42.42,0,0,0,28.92,12.21Zm-11.64,9a8.49,8.49,0,0,1-5.11-1.67c1-1.08,2.66-2.95,2.74-3a.41.41,0,0,0,0-.55S13.15,14.12,12.07,13a8.38,8.38,0,0,1,5.21-1.76c4.37,0,6.42,4.18,6.77,5C23.74,17.09,21.94,21.22,17.28,21.22ZM28.34,19l-3.23-2.78,3.23-2.78Z"/><path d="M16.86,12.83A1.21,1.21,0,1,0,18.06,14,1.21,1.21,0,0,0,16.86,12.83Zm0,1.69a.49.49,0,0,1-.49-.48.49.49,0,1,1,.49.48Z"/></g></g></svg>