<svg id="Composant_31_1" data-name="Composant 31 – 1" xmlns="http://www.w3.org/2000/svg" width="26" height="26" viewBox="0 0 26 26">
  <path id="Soustraction_7" data-name="Soustraction 7" d="M-1599,3217h-26v-26h26v26Zm-17.4-6.045h0c1.339,1.307,3.378,3.045,5.615,3.045a8.737,8.737,0,0,0,4.269-1.122,4.881,4.881,0,0,0,2.393-2.629,2.216,2.216,0,0,0,.123-.75,2.216,2.216,0,0,0-.123-.75,4.879,4.879,0,0,0-2.393-2.629,8.737,8.737,0,0,0-4.269-1.121c-2.238,0-4.277,1.737-5.616,3.044l-2.589-2.234a.694.694,0,0,0-.285-.061.7.7,0,0,0-.508.219.75.75,0,0,0-.159.816l1.09,2.717-1.09,2.714a.751.751,0,0,0-.058.285.745.745,0,0,0,.218.533.7.7,0,0,0,.509.218.691.691,0,0,0,.284-.061l2.588-2.235Zm7.227-9.472h0a3.379,3.379,0,0,0,2.8,1.517,3.422,3.422,0,0,0,3.257-2.479l.113-.37h-1.016l-.005.016a2.446,2.446,0,0,1-2.349,1.746,2.446,2.446,0,0,1-2.349-1.746h-.908a2.446,2.446,0,0,1-2.348,1.746,2.446,2.446,0,0,1-2.349-1.746h-.908a2.448,2.448,0,0,1-2.349,1.746,2.477,2.477,0,0,1-2.351-1.751l0-.011h-1.017l.111.363a3.421,3.421,0,0,0,3.26,2.487,3.378,3.378,0,0,0,2.8-1.518,3.376,3.376,0,0,0,2.8,1.518,3.372,3.372,0,0,0,2.8-1.517Zm0-5h0a3.379,3.379,0,0,0,2.8,1.517,3.422,3.422,0,0,0,3.257-2.479l.113-.37h-1.016l-.005.015a2.446,2.446,0,0,1-2.349,1.747,2.446,2.446,0,0,1-2.349-1.747h-.908a2.446,2.446,0,0,1-2.348,1.747,2.446,2.446,0,0,1-2.349-1.747h-.908a2.448,2.448,0,0,1-2.349,1.747,2.477,2.477,0,0,1-2.351-1.752l0-.01h-1.017l.111.363a3.422,3.422,0,0,0,3.26,2.487,3.378,3.378,0,0,0,2.8-1.518,3.376,3.376,0,0,0,2.8,1.518,3.372,3.372,0,0,0,2.8-1.517Z" transform="translate(1625 -3191)" fill="#e0e0e0"/>
</svg>
