<svg xmlns="http://www.w3.org/2000/svg" viewBox="0 0 21.35 24.15">
    <g id="Calque_2" data-name="Calque 2">
        <g id="Calque_1-2" data-name="Calque 1">
            <path d="M9.34,3.16a.65.65,0,0,1,0-.93h0A6.92,6.92,0,1,1,19.13,12h0a.66.66,0,0,1-.93,0,.66.66,0,0,1,0-.93h0a5.6,5.6,0,0,0-7.92-7.92.65.65,0,0,1-.93,0Zm6.4,6.39a.65.65,0,0,0,.93,0,3.44,3.44,0,1,0-4.75-5l-.12.12a.65.65,0,0,0,0,.93.66.66,0,0,0,.94,0,2.18,2.18,0,0,1,3,0,2.14,2.14,0,0,1,0,3A.65.65,0,0,0,15.74,9.55ZM19.13,17a.65.65,0,0,1,0,.93h0a11.05,11.05,0,0,1-4.25,2.63L16.27,23a.65.65,0,0,1,0,.66.68.68,0,0,1-.57.33H6.87a.66.66,0,0,1-.57-.33.65.65,0,0,1,0-.66l1.38-2.41A11.06,11.06,0,0,1,3.44,2.23a.65.65,0,0,1,.93,0l6.92,6.91,2.48-2.49a.65.65,0,0,1,.93,0,.66.66,0,0,1,0,.94l-2.48,2.5Zm-5.56,4a11.47,11.47,0,0,1-4.57,0L8,22.62h6.54Zm4.14-3.49-6.89-6.91h0L3.93,3.64A9.78,9.78,0,0,0,17.71,17.45Z"/>
        </g>
    </g>
</svg>