<svg xmlns="http://www.w3.org/2000/svg" width="16" height="14" viewBox="0 0 16 14">
  <g id="Groupe_669" data-name="Groupe 669" transform="translate(-4.088 -7)">
    <path id="Tracé_557" data-name="Tracé 557" d="M16.129,17.45a5.017,5.017,0,0,0-2.4.6,3.643,3.643,0,0,1-1.681.45,3.941,3.941,0,0,1-1.681-.45,4.931,4.931,0,0,0-2.321-.6,4.674,4.674,0,0,0-2.321.6,3.912,3.912,0,0,1-1.6.45V20a4.436,4.436,0,0,0,2.321-.6,3.912,3.912,0,0,1,1.6-.45,4.283,4.283,0,0,1,1.681.45,4.931,4.931,0,0,0,2.321.6,4.674,4.674,0,0,0,2.321-.6,3.643,3.643,0,0,1,1.681-.45,3.306,3.306,0,0,1,1.6.45,5.017,5.017,0,0,0,2.4.6V18.5a3.306,3.306,0,0,1-1.6-.45A5.3,5.3,0,0,0,16.129,17.45Z" transform="translate(0 1)" fill="#3b4559"/>
    <path id="Tracé_558" data-name="Tracé 558" d="M16.007,13.992a4.434,4.434,0,0,0-2.32.6,3.641,3.641,0,0,1-1.68.45,3.3,3.3,0,0,1-1.6-.45,4.928,4.928,0,0,0-2.32-.6,4.67,4.67,0,0,0-2.319.6,3.939,3.939,0,0,1-1.68.45v1.425a4.434,4.434,0,0,0,2.32-.6,3.1,3.1,0,0,1,1.679-.45,3.948,3.948,0,0,1,1.681.45,4.927,4.927,0,0,0,2.319.6,5.011,5.011,0,0,0,2.4-.6,2.662,2.662,0,0,1,1.6-.45,3.3,3.3,0,0,1,1.6.45,5.018,5.018,0,0,0,2.4.6V15.042a3.311,3.311,0,0,1-1.6-.45A5.956,5.956,0,0,0,16.007,13.992Z" transform="translate(0 0.664)" fill="#3b4559"/>
    <path id="Tracé_559" data-name="Tracé 559" d="M18.488,7.6a5.1,5.1,0,0,0-4.8,0,3.646,3.646,0,0,1-1.681.45,3.947,3.947,0,0,1-1.68-.45A3.9,3.9,0,0,0,8.087,7a4.43,4.43,0,0,0-2.319.6,3.939,3.939,0,0,1-1.68.45V9.475a5.009,5.009,0,0,0,2.4-.6,3.914,3.914,0,0,1,1.6-.45,4.28,4.28,0,0,1,1.68.45,4.933,4.933,0,0,0,2.321.6,4.664,4.664,0,0,0,2.319-.6,3.646,3.646,0,0,1,1.681-.45,3.311,3.311,0,0,1,1.6.45,5.011,5.011,0,0,0,2.4.6V8.05A3.3,3.3,0,0,1,18.488,7.6Z" fill="#3b4559"/>
    <path id="Tracé_560" data-name="Tracé 560" d="M16.088,10.458a5.014,5.014,0,0,0-2.4.6,2.756,2.756,0,0,1-1.681.45,3.645,3.645,0,0,1-1.68-.45,3.9,3.9,0,0,0-2.24-.6,5.287,5.287,0,0,0-2.319.6,3.1,3.1,0,0,1-1.68.45v1.425a4.434,4.434,0,0,0,2.32-.6,3.9,3.9,0,0,1,1.6-.45,3.678,3.678,0,0,1,1.76.525,4.933,4.933,0,0,0,2.321.6,4.664,4.664,0,0,0,2.319-.6,3.646,3.646,0,0,1,1.681-.45,3.311,3.311,0,0,1,1.6.45,5.011,5.011,0,0,0,2.4.6v-1.5a3.3,3.3,0,0,1-1.6-.45A5.021,5.021,0,0,0,16.088,10.458Z" transform="translate(0 0.331)" fill="#3b4559"/>
  </g>
</svg>
