<svg xmlns="http://www.w3.org/2000/svg" width="16" height="17" viewBox="0 0 16 17">
  <path id="Tracé_574" data-name="Tracé 574" d="M15.444,13.05l1.378,1.317a7.221,7.221,0,0,1-4.933,2.865V9.65h2.667V7.95H11.889v-1a2.569,2.569,0,0,0,1.778-2.4,2.669,2.669,0,0,0-5.333,0,2.569,2.569,0,0,0,1.778,2.4v1H7.444v1.7h2.667v7.582a7.221,7.221,0,0,1-4.933-2.865L6.556,13.05,3,10.5v2.55C3,16.348,7.373,19,11,19s8-2.652,8-5.95V10.5ZM11,3.7a.851.851,0,1,1-.889.85A.873.873,0,0,1,11,3.7Z" transform="translate(-3 -2)" fill="#3b4559"/>
</svg>
