<svg xmlns="http://www.w3.org/2000/svg" width="17.051" height="20" viewBox="0 0 17.051 20">
    <g id="Groupe_338" data-name="Groupe 338" transform="translate(-89.286 -182.843)">
        <line id="Ligne_1220" data-name="Ligne 1220" y2="2.222" transform="translate(97.806 182.843)" fill="none"
              stroke="#e1000f" stroke-miterlimit="10" stroke-width="1.5"/>
        <line id="Ligne_1221" data-name="Ligne 1221" y1="1.571" x2="1.599" transform="translate(104.212 186.087)"
              fill="none" stroke="#e1000f" stroke-miterlimit="10" stroke-width="1.5"/>
        <rect id="Rectangle_1678" data-name="Rectangle 1678" width="13.571" height="2.222"
              transform="translate(91.02 200.621)" fill="#e1000f"/>
        <g id="Tracé_381" data-name="Tracé 381" fill="#e1000f" stroke-miterlimit="10">
            <path d="M 103.6561889648438 198.7599945068359 L 91.95481109619141 198.7599945068359 L 94.17515563964844 188.7615814208984 C 94.26832580566406 188.3409881591797 94.7081298828125 188.0359954833984 95.22099304199219 188.0359954833984 L 100.3899993896484 188.0359954833984 C 100.9028625488281 188.0359954833984 101.3426666259766 188.3409881591797 101.4357452392578 188.7611846923828 L 103.6561889648438 198.7599945068359 Z"
                  stroke="none"/>
            <path d="M 102.7213592529297 198.0099945068359 L 100.703483581543 188.9233703613281 C 100.696403503418 188.8913726806641 100.5848236083984 188.7859954833984 100.3899993896484 188.7859954833984 L 95.22099304199219 188.7859954833984 C 95.02616882324219 188.7859954833984 94.91458892822266 188.8913726806641 94.90732574462891 188.9241790771484 L 92.88964080810547 198.0099945068359 L 102.7213592529297 198.0099945068359 M 104.5910034179688 199.5099945068359 L 91.01999664306641 199.5099945068359 L 93.4429931640625 188.5989990234375 C 93.61199951171875 187.8359985351563 94.35600280761719 187.2859954833984 95.22099304199219 187.2859954833984 L 100.3899993896484 187.2859954833984 C 101.254997253418 187.2859954833984 101.9989929199219 187.8359985351563 102.1679992675781 188.5989990234375 L 104.5910034179688 199.5099945068359 Z"
                  stroke="none" fill="#e1000f"/>
        </g>
        <line id="Ligne_1222" data-name="Ligne 1222" x1="1.599" y1="1.571" transform="translate(89.812 186.087)"
              fill="none" stroke="#e1000f" stroke-miterlimit="10" stroke-width="1.5"/>
    </g>
</svg>
