<svg xmlns="http://www.w3.org/2000/svg" width="28" height="24" viewBox="0 0 28 24">
  <g id="Groupe_822" data-name="Groupe 822" transform="translate(158.099 153.384)">
    <circle id="Ellipse_134" data-name="Ellipse 134" cx="4" cy="4" r="4" transform="translate(-148.099 -146.66)" fill="#e5e5eb"/>
    <line id="Ligne_1901" data-name="Ligne 1901" y2="13" transform="translate(-144.099 -142.384)" fill="none" stroke="#e5e5eb" stroke-width="2.5"/>
    <g id="Ellipse_135" data-name="Ellipse 135">
      <path id="Tracé_608" data-name="Tracé 608" d="M-138.314-135.765l-1.447-1.723a6.739,6.739,0,0,0,2.412-5.171,6.743,6.743,0,0,0-2.411-5.172l1.447-1.722a8.982,8.982,0,0,1,3.214,6.894A8.985,8.985,0,0,1-138.314-135.765Z" fill="#e5e5eb"/>
      <path id="Tracé_609" data-name="Tracé 609" d="M-149.885-135.765a8.984,8.984,0,0,1-3.214-6.894,8.987,8.987,0,0,1,3.214-6.9l1.447,1.723a6.742,6.742,0,0,0-2.411,5.172,6.74,6.74,0,0,0,2.411,5.171Z" fill="#e5e5eb"/>
    </g>
    <g id="Groupe_822-2" data-name="Groupe 822">
      <path id="Tracé_610" data-name="Tracé 610" d="M-135.1-131.935l-1.5-1.787a11.646,11.646,0,0,0,4.168-8.937A11.653,11.653,0,0,0-136.6-151.6l1.5-1.786a13.977,13.977,0,0,1,5,10.725A13.97,13.97,0,0,1-135.1-131.935Z" fill="#e5e5eb"/>
      <path id="Tracé_611" data-name="Tracé 611" d="M-151.6-151.6a11.648,11.648,0,0,0-4.168,8.938,11.648,11.648,0,0,0,4.168,8.938l-1.5,1.787a13.977,13.977,0,0,1-5-10.725,13.974,13.974,0,0,1,5-10.724l1.5,1.786" fill="#e5e5eb"/>
    </g>
  </g>
</svg>
