<svg xmlns="http://www.w3.org/2000/svg" width="22" height="27" viewBox="0 0 22 27">
  <g id="Groupe_645" data-name="Groupe 645" transform="translate(271.98 116.372)">
    <path id="Tracé_441" data-name="Tracé 441" d="M-263.052-94.272a2.49,2.49,0,0,0-.428,1.4,2.5,2.5,0,0,0,2.5,2.5,2.5,2.5,0,0,0,2.5-2.5,2.491,2.491,0,0,0-.429-1.4Z" fill="none" stroke="#e5e5eb" stroke-miterlimit="10" stroke-width="2"/>
    <line id="Ligne_1178" data-name="Ligne 1178" y2="4" transform="translate(-260.981 -116.372)" fill="none" stroke="#e5e5eb" stroke-miterlimit="10" stroke-width="4"/>
    <path id="Tracé_442" data-name="Tracé 442" d="M-268.039-98.825v-7.447a7,7,0,0,1,7-7h.117a7,7,0,0,1,7,7v7.447l2.942,3.151v1.4h-20v-1.4Z" fill="none" stroke="#e5e5eb" stroke-miterlimit="10" stroke-width="2"/>
  </g>
</svg>
