<svg id="Fiche_navire_-_onglet_signalement" data-name="Fiche navire - onglet signalement" xmlns="http://www.w3.org/2000/svg" width="26" height="25.999" viewBox="0 0 26 25.999">
  <path id="Soustraction_25" data-name="Soustraction 25" d="M4520,6190h-26v-26h26v26Zm-15.729-5.75a2.506,2.506,0,0,0-.022.328,2.752,2.752,0,0,0,5.5,0,2.539,2.539,0,0,0-.021-.329h5.52v-2.074l-2.2-2.3v-4.269a5.881,5.881,0,0,0-4.547-5.687V6167.5h-3v2.423a5.878,5.878,0,0,0-4.544,5.686v4.269l-2.206,2.3v2.074Zm9.45-1.5h-13.442l2.178-2.268v-4.872a4.437,4.437,0,0,1,4.5-4.36h.087a4.437,4.437,0,0,1,4.5,4.36v4.872l2.175,2.267Z" transform="translate(-4494 -6164.001)" fill="#e5e5eb"/>
</svg>
