<svg xmlns="http://www.w3.org/2000/svg" width="15.65" height="18.825" viewBox="0 0 15.65 18.825">
  <g id="Groupe_660" data-name="Groupe 660" transform="translate(0.825)">
    <path id="Tracé_441" data-name="Tracé 441" d="M-263.093-94.272A2.254,2.254,0,0,0-263.48-93a2.263,2.263,0,0,0,2.263,2.263A2.263,2.263,0,0,0-258.954-93a2.255,2.255,0,0,0-.388-1.267Z" transform="translate(268.217 108.742)" fill="none" stroke="#fff" stroke-miterlimit="10" stroke-width="1.65"/>
    <line id="Ligne_1178" data-name="Ligne 1178" y2="3.621" transform="translate(7)" fill="none" stroke="#fff" stroke-miterlimit="10" stroke-width="3"/>
    <path id="Tracé_442" data-name="Tracé 442" d="M-268.921-104.4v-4.571c0-2.373,2.194-4.3,4.9-4.3h.082c2.706,0,4.9,1.924,4.9,4.3v4.571l2.059,1.934v.861h-14v-.861Z" transform="translate(270.98 116.078)" fill="none" stroke="#fff" stroke-miterlimit="10" stroke-width="1.65"/>
  </g>
</svg>
