<svg id="Icone_VMS" xmlns="http://www.w3.org/2000/svg" width="26" height="22" viewBox="0 0 26 22">
  <circle id="Ellipse_134" data-name="Ellipse 134" cx="9.5" cy="9.5" r="9.5" transform="translate(3.5 0.5)" fill="#edd6a4"/>
  <g id="Ellipse_135" data-name="Ellipse 135" transform="translate(158.099 153.384)">
    <path id="Tracé_608" data-name="Tracé 608" d="M-138.314-137.3l-1.447-1.532a5.747,5.747,0,0,0,2.412-4.6,5.75,5.75,0,0,0-2.411-4.6l1.447-1.531a7.66,7.66,0,0,1,3.214,6.128A7.662,7.662,0,0,1-138.314-137.3Z" transform="translate(-2)" fill="#707785"/>
    <path id="Tracé_609" data-name="Tracé 609" d="M-149.885-137.3a7.661,7.661,0,0,1-3.214-6.128,7.664,7.664,0,0,1,3.214-6.129l1.447,1.532a5.749,5.749,0,0,0-2.411,4.6,5.747,5.747,0,0,0,2.411,4.6Z" fill="#707785"/>
  </g>
  <g id="Groupe_822" data-name="Groupe 822" transform="translate(158.099 153.384)">
    <path id="Tracé_610" data-name="Tracé 610" d="M-135.1-133.467l-1.5-1.659a10.521,10.521,0,0,0,4.168-8.3,10.526,10.526,0,0,0-4.169-8.3l1.5-1.658a12.626,12.626,0,0,1,5,9.959A12.62,12.62,0,0,1-135.1-133.467Z" transform="translate(-2 0)" fill="#707785"/>
    <path id="Tracé_611" data-name="Tracé 611" d="M-151.6-151.726a10.522,10.522,0,0,0-4.168,8.3,10.522,10.522,0,0,0,4.168,8.3l-1.5,1.659a12.626,12.626,0,0,1-5-9.959,12.623,12.623,0,0,1,5-9.958l1.5,1.658" fill="#707785"/>
  </g>
  <line id="Ligne_1901" data-name="Ligne 1901" y2="10" transform="translate(13 12)" fill="none" stroke="#707785" stroke-width="2"/>
  <circle id="Ellipse_134-2" data-name="Ellipse 134" cx="3" cy="3" r="3" transform="translate(10 6.958)" fill="#707785"/>
</svg>
