<svg xmlns="http://www.w3.org/2000/svg" width="26" height="26" viewBox="0 0 26 26">
  <path id="Tracé_595" data-name="Tracé 595" d="M-154.511-32.275v26h26v-26Zm7.473,17.716a8.56,8.56,0,0,1-3.073-6.588,8.56,8.56,0,0,1,3.073-6.588l.77.92a7.364,7.364,0,0,0-2.643,5.668,7.362,7.362,0,0,0,2.643,5.668Zm1.768-2.106a5.825,5.825,0,0,1-2.091-4.482,5.824,5.824,0,0,1,2.09-4.481l.771.92a4.627,4.627,0,0,0-1.661,3.561,4.634,4.634,0,0,0,1.661,3.563Zm4.659,5.39h-1.8V-18.3a2.99,2.99,0,0,1-2.1-2.847,3,3,0,0,1,3-3,3,3,0,0,1,3,3,2.99,2.99,0,0,1-2.1,2.847Zm2.861-5.393-.771-.92a4.624,4.624,0,0,0,1.66-3.561,4.623,4.623,0,0,0-1.66-3.562l.771-.92a5.823,5.823,0,0,1,2.089,4.482A5.826,5.826,0,0,1-137.75-16.668Zm1.768,2.113-.771-.92a7.356,7.356,0,0,0,2.642-5.667,7.365,7.365,0,0,0-2.643-5.67l.771-.919a8.56,8.56,0,0,1,3.072,6.589A8.555,8.555,0,0,1-135.982-14.555Z" transform="translate(154.511 32.275)" fill="#e5e5eb"/>
</svg>
