<svg id="Picto_observations" data-name="Picto observations" xmlns="http://www.w3.org/2000/svg" width="24" height="16" viewBox="0 0 24 16">
  <path id="Tracé_634" data-name="Tracé 634" d="M318.7,606.633l-5.091-6.365h0a2.753,2.753,0,0,0-4-.422,3.039,3.039,0,0,0-1.044,2.308.643.643,0,0,0,.005.1c-.365-.01-.742-.01-1.107,0,0-.032.007-.064.007-.1a2.912,2.912,0,0,0-2.846-2.975,2.792,2.792,0,0,0-2.194,1.089h0l-5.06,6.325a5.016,5.016,0,0,0-.428.533h0a5.231,5.231,0,0,0,1.081,7.083,4.7,4.7,0,0,0,6.76-1.132,5.2,5.2,0,0,0,.853-2.137l.391-1.821a14.744,14.744,0,0,1,3.992,0l.372,1.735a4.879,4.879,0,0,0,5.509,4.26,5.044,5.044,0,0,0,4.067-5.772,5.232,5.232,0,0,0-.866-2.219S318.83,606.777,318.7,606.633Zm-17.839,7.091a3.273,3.273,0,1,1,3.272-3.273h0a3.271,3.271,0,0,1-3.271,3.272Zm5.542-6.363.133-.621.12-.558a15.344,15.344,0,0,1,2.728,0l.121.563.131.612A15,15,0,0,0,306.4,607.361Zm8.774,6.363a3.273,3.273,0,1,1,3.273-3.273h0a3.272,3.272,0,0,1-3.272,3.272Z" transform="translate(-296.025 -599.175)" fill="#3b4559"/>
</svg>
