<svg id="Masquer_navires_au_port" data-name="Masquer navires au port" xmlns="http://www.w3.org/2000/svg" width="36" height="36" viewBox="0 0 36 36">
  <rect id="Rectangle_2350" data-name="Rectangle 2350" width="36" height="36" fill="none"/>
  <g id="Label_quartier" transform="translate(8.5 7)">
    <path id="Tracé_486" data-name="Tracé 486" d="M17.778,16.3,19.414,18a8.472,8.472,0,0,1-5.858,3.707V11.9h3.167V9.7H13.556V8.4a3.305,3.305,0,0,0,2.111-3.1A3.245,3.245,0,0,0,12.5,2,3.245,3.245,0,0,0,9.333,5.3a3.305,3.305,0,0,0,2.111,3.1V9.7H8.278v2.2h3.167v9.812A8.472,8.472,0,0,1,5.586,18l1.636-1.7L3,13v3.3C3,20.568,8.193,24,12.5,24S22,20.568,22,16.3V13ZM12.5,4.2a1.1,1.1,0,1,1-1.056,1.1A1.082,1.082,0,0,1,12.5,4.2Z" transform="translate(-3 -2)" fill="#e5e5eb"/>
  </g>
</svg>
