<svg id="Composant_32_1" data-name="Composant 32 – 1" xmlns="http://www.w3.org/2000/svg" width="26" height="26"
     viewBox="0 0 26 26">
    <path id="Tracé_65" data-name="Tracé 65"
          d="M428.447,151.484h1.211a7.263,7.263,0,0,0-6.461-6.461v1.211h-1.5v-1.211a7.263,7.263,0,0,0-6.461,6.461h1.211v1.5h-1.211a7.263,7.263,0,0,0,6.461,6.461v-1.211h1.5v1.211a7.263,7.263,0,0,0,6.461-6.461h-1.211Zm-6,4.25a3.5,3.5,0,1,1,3.5-3.5A3.5,3.5,0,0,1,422.447,155.734Z"
          transform="translate(-409.447 -139.234)" fill="#e0e0e0"/>
    <path id="Tracé_66" data-name="Tracé 66"
          d="M409.447,139.234v26h26v-26Zm23,13.75h-1.288a8.757,8.757,0,0,1-7.962,7.962v1.288h-1.5v-1.288a8.756,8.756,0,0,1-7.962-7.962h-1.288v-1.5h1.288a8.755,8.755,0,0,1,7.962-7.962v-1.288h1.5v1.288a8.756,8.756,0,0,1,7.962,7.962h1.288Z"
          transform="translate(-409.447 -139.234)" fill="#e0e0e0"/>
</svg>
