<svg id="Composant_34_1" data-name="Composant 34 – 1" xmlns="http://www.w3.org/2000/svg" width="26" height="26"
     viewBox="0 0 26 26">
    <path id="Tracé_76" data-name="Tracé 76"
          d="M441.447,170.234v26h26v-26Zm13.75,15.894v6.106h-1.5v-6.106a3,3,0,1,1,1.5,0Zm3.607,1.932-.669-.744a5.5,5.5,0,1,0-7.249.107l-.648.762a6.5,6.5,0,1,1,9.162-.739A6.394,6.394,0,0,1,458.8,188.06Zm2.892,1.313a9.4,9.4,0,0,1-.913.939l-.667-.746a8.5,8.5,0,0,0-.177-12.819,8.5,8.5,0,0,0-10.985,12.974l-.646.762a9.5,9.5,0,1,1,13.388-1.11Z"
          transform="translate(-441.447 -170.234)" fill="#e0e0e0"/>
</svg>
