<svg id="Position_message_JPE_Pin_gris_clair" data-name="Position message JPE_Pin_gris clair" xmlns="http://www.w3.org/2000/svg" width="15" height="20" viewBox="0 0 15 20">
  <path id="Tracé_94" data-name="Tracé 94" d="M2893.553,227.67a7.451,7.451,0,0,0-7.5,7.4,7.2,7.2,0,0,0,.129,1.254c.031.182.073.357.118.535,1.259,5.153,7.222,10.811,7.222,10.811s6-5.642,7.279-10.789c.047-.187.092-.373.125-.566a7,7,0,0,0,.127-1.244A7.451,7.451,0,0,0,2893.553,227.67Zm0,11.1a3.7,3.7,0,1,1,3.75-3.7A3.724,3.724,0,0,1,2893.553,238.77Z" transform="translate(-2886.053 -227.67)" fill="#e5e5eb"/>
</svg>
