<svg id="Bouton_afficher_messages_JPE_sur_piste" data-name="Bouton_afficher messages JPE sur piste" xmlns="http://www.w3.org/2000/svg" width="30" height="30" viewBox="0 0 30 30">
  <rect id="Rectangle_1699" data-name="Rectangle 1699" width="30" height="30" fill="none"/>
  <g id="Position_message_JPE_Pin_gris_clair" data-name="Position message JPE_Pin_gris clair" transform="translate(9 4)">
    <path id="Tracé_94" data-name="Tracé 94" d="M2892.053,227.67a5.961,5.961,0,0,0-6,5.92,5.761,5.761,0,0,0,.1,1c.026.145.058.286.094.428,1.007,4.123,5.778,8.648,5.778,8.648s4.8-4.514,5.823-8.631c.037-.15.073-.3.1-.453a5.606,5.606,0,0,0,.1-1A5.96,5.96,0,0,0,2892.053,227.67Zm0,8.88a2.96,2.96,0,1,1,3-2.96A2.98,2.98,0,0,1,2892.053,236.55Z" transform="translate(-2886.053 -227.67)" fill="#e5e5eb"/>
  </g>
  <g id="Groupe_715" data-name="Groupe 715" transform="translate(-205.892 -54.822)">
    <path id="Tracé_37" data-name="Tracé 37" d="M211.925,76.822l-.033.011.033.1Z" fill="#e5e5eb"/>
    <path id="Tracé_38" data-name="Tracé 38" d="M228.875,76.973l0,.016a2.453,2.453,0,0,1-4.7,0h-.908a2.453,2.453,0,0,1-4.7,0h-.908a2.447,2.447,0,0,1-2.349,1.746,2.477,2.477,0,0,1-2.351-1.752l0-.011h-1.017l.111.363a3.421,3.421,0,0,0,3.26,2.486,3.365,3.365,0,0,0,2.8-1.518,3.347,3.347,0,0,0,5.606,0,3.368,3.368,0,0,0,2.8,1.518,3.42,3.42,0,0,0,3.257-2.479l.113-.371Z" fill="#e5e5eb"/>
  </g>
</svg>
