<svg id="Calque_1" data-name="Calque 1" xmlns="http://www.w3.org/2000/svg" viewBox="0 0 61.4 66.08">
    <path id="Tracé_78" data-name="Tracé 78"
          d="M54,59.27a20.52,20.52,0,0,1-11.64-3.85,20,20,0,0,1-23.3,0A20.52,20.52,0,0,1,7.41,59.27H1.59v5.82H7.41a25.57,25.57,0,0,0,11.65-2.88,25.45,25.45,0,0,0,23.29,0A25.25,25.25,0,0,0,54,65.09h5.83V59.27ZM7.26,53.44h.15c4.66,0,8.79-2.57,11.65-5.83,2.85,3.26,7,5.83,11.64,5.83s8.79-2.57,11.65-5.83c2.85,3.26,7,5.83,11.64,5.83h.15l6.35-22.29L54,29V9.73H39.44V1H22V9.73H7.41V29L.92,31.15Zm6-37.88H48.17V27.12L30.7,21.39,13.23,27.13Z"
          style="fill:#fff"/>
</svg>